<mxfile host="Electron" modified="2024-07-20T14:24:38.072Z" agent="Mozilla/5.0 (Macintosh; Intel Mac OS X 10_15_7) AppleWebKit/537.36 (KHTML, like Gecko) draw.io/24.6.1 Chrome/124.0.6367.207 Electron/30.0.6 Safari/537.36" etag="gd0wEA0xfR_zTN2lBVuV" version="24.6.1" type="device">
  <diagram name="第 1 页" id="OPNZHjLj4EeVt9BAlshu">
    <mxGraphModel dx="2261" dy="769" grid="1" gridSize="10" guides="1" tooltips="1" connect="1" arrows="1" fold="1" page="1" pageScale="1" pageWidth="827" pageHeight="1169" math="0" shadow="0">
      <root>
        <mxCell id="0" />
        <mxCell id="1" parent="0" />
        <mxCell id="fdpDCFg-NzPG3DscGwCP-4" value="" style="rounded=0;whiteSpace=wrap;html=1;fillColor=#f5f5f5;strokeColor=#666666;fontColor=#333333;" parent="1" vertex="1">
          <mxGeometry x="310" y="40" width="2040" height="850" as="geometry" />
        </mxCell>
        <mxCell id="fdpDCFg-NzPG3DscGwCP-1" value="" style="rounded=0;whiteSpace=wrap;html=1;fillColor=#f9f7ed;strokeColor=#36393d;" parent="1" vertex="1">
          <mxGeometry x="20" y="40" width="290" height="850" as="geometry" />
        </mxCell>
        <mxCell id="fdpDCFg-NzPG3DscGwCP-2" value="&lt;font style=&quot;font-size: 16px;&quot;&gt;服务发现模块&lt;/font&gt;" style="text;html=1;align=center;verticalAlign=middle;whiteSpace=wrap;rounded=0;" parent="1" vertex="1">
          <mxGeometry x="120" y="205" width="110" height="30" as="geometry" />
        </mxCell>
        <mxCell id="fdpDCFg-NzPG3DscGwCP-8" style="edgeStyle=orthogonalEdgeStyle;rounded=0;orthogonalLoop=1;jettySize=auto;html=1;exitX=0.5;exitY=0;exitDx=0;exitDy=0;exitPerimeter=0;strokeWidth=2;strokeColor=#FF9933;" parent="1" source="fdpDCFg-NzPG3DscGwCP-3" target="fdpDCFg-NzPG3DscGwCP-7" edge="1">
          <mxGeometry relative="1" as="geometry" />
        </mxCell>
        <mxCell id="fdpDCFg-NzPG3DscGwCP-3" value="" style="shape=cylinder3;whiteSpace=wrap;html=1;boundedLbl=1;backgroundOutline=1;size=4;direction=south;fillColor=#ffcccc;strokeColor=#36393d;" parent="1" vertex="1">
          <mxGeometry x="80" y="370" width="190" height="20" as="geometry" />
        </mxCell>
        <mxCell id="fdpDCFg-NzPG3DscGwCP-5" value="&lt;font style=&quot;font-size: 16px;&quot;&gt;scrape模块&lt;/font&gt;" style="text;html=1;align=center;verticalAlign=middle;whiteSpace=wrap;rounded=0;" parent="1" vertex="1">
          <mxGeometry x="350" y="205" width="116" height="25" as="geometry" />
        </mxCell>
        <mxCell id="fdpDCFg-NzPG3DscGwCP-15" style="edgeStyle=orthogonalEdgeStyle;rounded=0;orthogonalLoop=1;jettySize=auto;html=1;exitX=1;exitY=0.25;exitDx=0;exitDy=0;entryX=0;entryY=0.5;entryDx=0;entryDy=0;strokeWidth=2;strokeColor=#FF3333;" parent="1" source="fdpDCFg-NzPG3DscGwCP-7" target="fdpDCFg-NzPG3DscGwCP-13" edge="1">
          <mxGeometry relative="1" as="geometry" />
        </mxCell>
        <mxCell id="fdpDCFg-NzPG3DscGwCP-18" style="edgeStyle=orthogonalEdgeStyle;rounded=0;orthogonalLoop=1;jettySize=auto;html=1;exitX=1;exitY=0.75;exitDx=0;exitDy=0;entryX=0;entryY=0.5;entryDx=0;entryDy=0;fillColor=#60a917;strokeColor=#2D7600;strokeWidth=2;dashed=1;" parent="1" source="fdpDCFg-NzPG3DscGwCP-7" target="fdpDCFg-NzPG3DscGwCP-14" edge="1">
          <mxGeometry relative="1" as="geometry">
            <Array as="points">
              <mxPoint x="630" y="395" />
              <mxPoint x="630" y="295" />
            </Array>
          </mxGeometry>
        </mxCell>
        <mxCell id="fdpDCFg-NzPG3DscGwCP-7" value="update协程" style="rounded=1;whiteSpace=wrap;html=1;fillColor=#d5e8d4;strokeColor=#82b366;" parent="1" vertex="1">
          <mxGeometry x="414" y="350" width="120" height="60" as="geometry" />
        </mxCell>
        <mxCell id="fdpDCFg-NzPG3DscGwCP-9" value="chan&amp;nbsp;&amp;nbsp;&lt;span style=&quot;font-family: ui-monospace, SFMono-Regular, &amp;quot;SF Mono&amp;quot;, Menlo, Consolas, &amp;quot;Liberation Mono&amp;quot;, monospace; font-size: 13.6px; text-align: start; white-space-collapse: break-spaces;&quot;&gt;map[string][]*targetgroup.Group&lt;/span&gt;" style="text;html=1;align=center;verticalAlign=middle;whiteSpace=wrap;rounded=0;" parent="1" vertex="1">
          <mxGeometry x="-15" y="340" width="360" height="30" as="geometry" />
        </mxCell>
        <mxCell id="fdpDCFg-NzPG3DscGwCP-11" value="&lt;article data-content=&quot;[{&amp;quot;type&amp;quot;:&amp;quot;block&amp;quot;,&amp;quot;id&amp;quot;:&amp;quot;wYMw-1721447536406&amp;quot;,&amp;quot;name&amp;quot;:&amp;quot;code&amp;quot;,&amp;quot;data&amp;quot;:{&amp;quot;language&amp;quot;:&amp;quot;&amp;quot;,&amp;quot;theme&amp;quot;:&amp;quot;default&amp;quot;,&amp;quot;version&amp;quot;:1},&amp;quot;nodes&amp;quot;:[{&amp;quot;type&amp;quot;:&amp;quot;block&amp;quot;,&amp;quot;id&amp;quot;:&amp;quot;BwX8-1721447536405&amp;quot;,&amp;quot;name&amp;quot;:&amp;quot;code-line&amp;quot;,&amp;quot;data&amp;quot;:{},&amp;quot;nodes&amp;quot;:[{&amp;quot;type&amp;quot;:&amp;quot;text&amp;quot;,&amp;quot;id&amp;quot;:&amp;quot;Ct8M-1721447536404&amp;quot;,&amp;quot;leaves&amp;quot;:[{&amp;quot;text&amp;quot;:&amp;quot;Manager&amp;quot;,&amp;quot;marks&amp;quot;:[]}]}]}],&amp;quot;state&amp;quot;:{}}]&quot;&gt;&lt;div data-language=&quot;&quot; style=&quot;white-space-collapse: preserve;&quot; data-theme=&quot;default&quot;&gt;&lt;span style=&quot;background-color: initial; white-space-collapse: collapse;&quot;&gt;Scrape&amp;nbsp;&lt;/span&gt;Manager&lt;/div&gt;&lt;/article&gt;" style="swimlane;fontStyle=0;childLayout=stackLayout;horizontal=1;startSize=30;horizontalStack=0;resizeParent=1;resizeParentMax=0;resizeLast=0;collapsible=1;marginBottom=0;whiteSpace=wrap;html=1;fillColor=#ffcc99;strokeColor=#36393d;" parent="1" vertex="1">
          <mxGeometry x="660" y="220" width="140" height="90" as="geometry" />
        </mxCell>
        <mxCell id="fdpDCFg-NzPG3DscGwCP-13" value="&lt;article data-content=&quot;[{&amp;quot;type&amp;quot;:&amp;quot;block&amp;quot;,&amp;quot;id&amp;quot;:&amp;quot;wYMw-1721447536406&amp;quot;,&amp;quot;name&amp;quot;:&amp;quot;code&amp;quot;,&amp;quot;data&amp;quot;:{&amp;quot;language&amp;quot;:&amp;quot;&amp;quot;,&amp;quot;theme&amp;quot;:&amp;quot;default&amp;quot;,&amp;quot;version&amp;quot;:1},&amp;quot;nodes&amp;quot;:[{&amp;quot;type&amp;quot;:&amp;quot;block&amp;quot;,&amp;quot;id&amp;quot;:&amp;quot;zmjt-1721447626092&amp;quot;,&amp;quot;name&amp;quot;:&amp;quot;code-line&amp;quot;,&amp;quot;data&amp;quot;:{},&amp;quot;nodes&amp;quot;:[{&amp;quot;type&amp;quot;:&amp;quot;text&amp;quot;,&amp;quot;id&amp;quot;:&amp;quot;NunP-1721447626090&amp;quot;,&amp;quot;leaves&amp;quot;:[{&amp;quot;text&amp;quot;:&amp;quot;targetSets&amp;quot;,&amp;quot;marks&amp;quot;:[]}]}]}],&amp;quot;state&amp;quot;:{}}]&quot;&gt;&lt;div data-language=&quot;&quot; style=&quot;white-space-collapse: preserve;&quot; data-theme=&quot;default&quot;&gt;targetSets&lt;/div&gt;&lt;/article&gt;" style="text;strokeColor=#A50040;fillColor=#d80073;align=left;verticalAlign=middle;spacingLeft=4;spacingRight=4;overflow=hidden;points=[[0,0.5],[1,0.5]];portConstraint=eastwest;rotatable=0;whiteSpace=wrap;html=1;fontColor=#ffffff;" parent="fdpDCFg-NzPG3DscGwCP-11" vertex="1">
          <mxGeometry y="30" width="140" height="30" as="geometry" />
        </mxCell>
        <mxCell id="fdpDCFg-NzPG3DscGwCP-14" value="&lt;article data-content=&quot;[{&amp;quot;type&amp;quot;:&amp;quot;block&amp;quot;,&amp;quot;id&amp;quot;:&amp;quot;wYMw-1721447536406&amp;quot;,&amp;quot;name&amp;quot;:&amp;quot;code&amp;quot;,&amp;quot;data&amp;quot;:{&amp;quot;language&amp;quot;:&amp;quot;&amp;quot;,&amp;quot;theme&amp;quot;:&amp;quot;default&amp;quot;,&amp;quot;version&amp;quot;:1},&amp;quot;nodes&amp;quot;:[{&amp;quot;type&amp;quot;:&amp;quot;block&amp;quot;,&amp;quot;id&amp;quot;:&amp;quot;qOg6-1721447632271&amp;quot;,&amp;quot;name&amp;quot;:&amp;quot;code-line&amp;quot;,&amp;quot;data&amp;quot;:{},&amp;quot;nodes&amp;quot;:[{&amp;quot;type&amp;quot;:&amp;quot;text&amp;quot;,&amp;quot;id&amp;quot;:&amp;quot;eazO-1721447632269&amp;quot;,&amp;quot;leaves&amp;quot;:[{&amp;quot;text&amp;quot;:&amp;quot;triggerReload&amp;quot;,&amp;quot;marks&amp;quot;:[]}]}]}],&amp;quot;state&amp;quot;:{}}]&quot;&gt;&lt;div data-language=&quot;&quot; style=&quot;white-space-collapse: preserve;&quot; data-theme=&quot;default&quot;&gt;triggerReload&lt;/div&gt;&lt;/article&gt;" style="text;strokeColor=#2D7600;fillColor=#60a917;align=left;verticalAlign=middle;spacingLeft=4;spacingRight=4;overflow=hidden;points=[[0,0.5],[1,0.5]];portConstraint=eastwest;rotatable=0;whiteSpace=wrap;html=1;perimeterSpacing=1;fontColor=#ffffff;" parent="fdpDCFg-NzPG3DscGwCP-11" vertex="1">
          <mxGeometry y="60" width="140" height="30" as="geometry" />
        </mxCell>
        <mxCell id="fdpDCFg-NzPG3DscGwCP-16" value="&lt;font style=&quot;font-size: 14px;&quot;&gt;1. 通过chan 获取服务发现的结果&lt;/font&gt;" style="text;html=1;align=center;verticalAlign=middle;whiteSpace=wrap;rounded=0;fontColor=default;" parent="1" vertex="1">
          <mxGeometry x="264" y="390" width="150" height="30" as="geometry" />
        </mxCell>
        <mxCell id="fdpDCFg-NzPG3DscGwCP-17" value="&lt;font color=&quot;#ff3333&quot;&gt;2.1&amp;nbsp; 将服务发现的结果更新到&lt;span style=&quot;background-color: initial;&quot;&gt;Scrape&amp;nbsp;&lt;/span&gt;&lt;span style=&quot;white-space-collapse: preserve;&quot;&gt;Manager的&lt;/span&gt;&lt;span style=&quot;white-space-collapse: preserve; background-color: initial;&quot;&gt;targetSets字段&lt;/span&gt;&lt;/font&gt;" style="text;html=1;align=center;verticalAlign=middle;whiteSpace=wrap;rounded=0;" parent="1" vertex="1">
          <mxGeometry x="420" y="260" width="170" height="50" as="geometry" />
        </mxCell>
        <mxCell id="fdpDCFg-NzPG3DscGwCP-19" value="2.2 更新&lt;span style=&quot;white-space-collapse: preserve;&quot;&gt;targetSets字段之后，发生信号&lt;/span&gt;" style="text;html=1;align=center;verticalAlign=middle;whiteSpace=wrap;rounded=0;" parent="1" vertex="1">
          <mxGeometry x="550" y="410" width="150" height="25" as="geometry" />
        </mxCell>
        <mxCell id="fdpDCFg-NzPG3DscGwCP-27" style="edgeStyle=orthogonalEdgeStyle;rounded=0;orthogonalLoop=1;jettySize=auto;html=1;exitX=0.5;exitY=0;exitDx=0;exitDy=0;fillColor=#0050ef;strokeColor=#001DBC;strokeWidth=2;" parent="1" source="fdpDCFg-NzPG3DscGwCP-20" target="fdpDCFg-NzPG3DscGwCP-13" edge="1">
          <mxGeometry relative="1" as="geometry" />
        </mxCell>
        <mxCell id="fdpDCFg-NzPG3DscGwCP-49" value="" style="ellipse;whiteSpace=wrap;html=1;dashed=1;dashPattern=8 8;fillColor=#dae8fc;strokeColor=#6c8ebf;" parent="1" vertex="1">
          <mxGeometry x="1306" y="190" width="239" height="410" as="geometry" />
        </mxCell>
        <mxCell id="fdpDCFg-NzPG3DscGwCP-40" style="edgeStyle=orthogonalEdgeStyle;rounded=0;orthogonalLoop=1;jettySize=auto;html=1;exitX=1;exitY=0.5;exitDx=0;exitDy=0;entryX=0;entryY=0.5;entryDx=0;entryDy=0;strokeWidth=2;strokeColor=#b85450;fillColor=#f8cecc;" parent="1" source="fdpDCFg-NzPG3DscGwCP-20" target="fdpDCFg-NzPG3DscGwCP-39" edge="1">
          <mxGeometry relative="1" as="geometry">
            <Array as="points">
              <mxPoint x="1330" y="380" />
              <mxPoint x="1330" y="525" />
            </Array>
          </mxGeometry>
        </mxCell>
        <mxCell id="fdpDCFg-NzPG3DscGwCP-41" style="edgeStyle=orthogonalEdgeStyle;rounded=0;orthogonalLoop=1;jettySize=auto;html=1;exitX=1;exitY=0.5;exitDx=0;exitDy=0;entryX=0;entryY=0.5;entryDx=0;entryDy=0;strokeWidth=2;strokeColor=#b85450;fillColor=#f8cecc;" parent="1" source="fdpDCFg-NzPG3DscGwCP-20" target="fdpDCFg-NzPG3DscGwCP-29" edge="1">
          <mxGeometry relative="1" as="geometry">
            <Array as="points">
              <mxPoint x="1330" y="380" />
              <mxPoint x="1330" y="270" />
            </Array>
          </mxGeometry>
        </mxCell>
        <mxCell id="fdpDCFg-NzPG3DscGwCP-42" style="edgeStyle=orthogonalEdgeStyle;rounded=0;orthogonalLoop=1;jettySize=auto;html=1;exitX=1;exitY=0.5;exitDx=0;exitDy=0;strokeWidth=2;strokeColor=#b85450;fillColor=#f8cecc;" parent="1" source="fdpDCFg-NzPG3DscGwCP-20" target="fdpDCFg-NzPG3DscGwCP-38" edge="1">
          <mxGeometry relative="1" as="geometry" />
        </mxCell>
        <mxCell id="fdpDCFg-NzPG3DscGwCP-20" value="&lt;article data-content=&quot;[{&amp;quot;type&amp;quot;:&amp;quot;block&amp;quot;,&amp;quot;id&amp;quot;:&amp;quot;wYMw-1721447536406&amp;quot;,&amp;quot;name&amp;quot;:&amp;quot;code&amp;quot;,&amp;quot;data&amp;quot;:{&amp;quot;language&amp;quot;:&amp;quot;&amp;quot;,&amp;quot;theme&amp;quot;:&amp;quot;default&amp;quot;,&amp;quot;version&amp;quot;:1},&amp;quot;nodes&amp;quot;:[{&amp;quot;type&amp;quot;:&amp;quot;block&amp;quot;,&amp;quot;id&amp;quot;:&amp;quot;22FU-1721452351014&amp;quot;,&amp;quot;name&amp;quot;:&amp;quot;code-line&amp;quot;,&amp;quot;data&amp;quot;:{},&amp;quot;nodes&amp;quot;:[{&amp;quot;type&amp;quot;:&amp;quot;text&amp;quot;,&amp;quot;id&amp;quot;:&amp;quot;Je7Y-1721452351012&amp;quot;,&amp;quot;leaves&amp;quot;:[{&amp;quot;text&amp;quot;:&amp;quot;reloader&amp;quot;,&amp;quot;marks&amp;quot;:[]}]}]}],&amp;quot;state&amp;quot;:{}}]&quot;&gt;&lt;div data-language=&quot;&quot; style=&quot;white-space-collapse: preserve;&quot; data-theme=&quot;default&quot;&gt;reloader协程&lt;/div&gt;&lt;/article&gt;" style="rounded=1;whiteSpace=wrap;html=1;fillColor=#cdeb8b;strokeColor=#36393d;" parent="1" vertex="1">
          <mxGeometry x="950" y="350" width="120" height="60" as="geometry" />
        </mxCell>
        <mxCell id="fdpDCFg-NzPG3DscGwCP-22" style="edgeStyle=orthogonalEdgeStyle;rounded=0;orthogonalLoop=1;jettySize=auto;html=1;exitX=1;exitY=0.5;exitDx=0;exitDy=0;entryX=0;entryY=0.5;entryDx=0;entryDy=0;dashed=1;strokeWidth=2;fillColor=#60a917;strokeColor=#2D7600;" parent="1" source="fdpDCFg-NzPG3DscGwCP-14" target="fdpDCFg-NzPG3DscGwCP-20" edge="1">
          <mxGeometry relative="1" as="geometry" />
        </mxCell>
        <mxCell id="fdpDCFg-NzPG3DscGwCP-23" value="3.1 接收到信号，得知&lt;span style=&quot;white-space-collapse: preserve;&quot;&gt;targetSets已有更新&lt;/span&gt;" style="text;html=1;align=center;verticalAlign=middle;whiteSpace=wrap;rounded=0;" parent="1" vertex="1">
          <mxGeometry x="750" y="390" width="190" height="25" as="geometry" />
        </mxCell>
        <mxCell id="fdpDCFg-NzPG3DscGwCP-28" value="3.2 获取最新的targets地址" style="text;html=1;align=center;verticalAlign=middle;whiteSpace=wrap;rounded=0;" parent="1" vertex="1">
          <mxGeometry x="830" y="230" width="150" height="25" as="geometry" />
        </mxCell>
        <mxCell id="fdpDCFg-NzPG3DscGwCP-60" style="edgeStyle=orthogonalEdgeStyle;rounded=0;orthogonalLoop=1;jettySize=auto;html=1;exitX=1;exitY=0.5;exitDx=0;exitDy=0;fillColor=#e1d5e7;strokeColor=#9673a6;strokeWidth=2;" parent="1" source="fdpDCFg-NzPG3DscGwCP-29" edge="1">
          <mxGeometry relative="1" as="geometry">
            <mxPoint x="1880" y="270" as="targetPoint" />
          </mxGeometry>
        </mxCell>
        <mxCell id="fdpDCFg-NzPG3DscGwCP-67" style="edgeStyle=orthogonalEdgeStyle;rounded=0;orthogonalLoop=1;jettySize=auto;html=1;exitX=1;exitY=0.5;exitDx=0;exitDy=0;entryX=0;entryY=0.5;entryDx=0;entryDy=0;fillColor=#e1d5e7;strokeColor=#9673a6;strokeWidth=2;" parent="1" source="fdpDCFg-NzPG3DscGwCP-29" target="fdpDCFg-NzPG3DscGwCP-65" edge="1">
          <mxGeometry relative="1" as="geometry">
            <Array as="points">
              <mxPoint x="1800" y="270" />
              <mxPoint x="1800" y="520" />
              <mxPoint x="1880" y="520" />
            </Array>
          </mxGeometry>
        </mxCell>
        <mxCell id="fdpDCFg-NzPG3DscGwCP-68" style="edgeStyle=orthogonalEdgeStyle;rounded=0;orthogonalLoop=1;jettySize=auto;html=1;exitX=1;exitY=0.5;exitDx=0;exitDy=0;entryX=0;entryY=0.5;entryDx=0;entryDy=0;fillColor=#e1d5e7;strokeColor=#9673a6;strokeWidth=2;" parent="1" source="fdpDCFg-NzPG3DscGwCP-29" target="fdpDCFg-NzPG3DscGwCP-66" edge="1">
          <mxGeometry relative="1" as="geometry">
            <Array as="points">
              <mxPoint x="1800" y="270" />
              <mxPoint x="1800" y="680" />
              <mxPoint x="1880" y="680" />
            </Array>
          </mxGeometry>
        </mxCell>
        <mxCell id="fdpDCFg-NzPG3DscGwCP-29" value="" style="rounded=1;whiteSpace=wrap;html=1;fillColor=#fff2cc;strokeColor=#d6b656;" parent="1" vertex="1">
          <mxGeometry x="1370" y="240" width="120" height="60" as="geometry" />
        </mxCell>
        <mxCell id="fdpDCFg-NzPG3DscGwCP-38" value="scrapePool" style="rounded=1;whiteSpace=wrap;html=1;fillColor=#fff2cc;strokeColor=#d6b656;" parent="1" vertex="1">
          <mxGeometry x="1370" y="350" width="120" height="60" as="geometry" />
        </mxCell>
        <mxCell id="fdpDCFg-NzPG3DscGwCP-39" value="scrapePool" style="rounded=1;whiteSpace=wrap;html=1;fillColor=#fff2cc;strokeColor=#d6b656;" parent="1" vertex="1">
          <mxGeometry x="1370" y="495" width="120" height="60" as="geometry" />
        </mxCell>
        <mxCell id="fdpDCFg-NzPG3DscGwCP-43" value="jobname-1" style="text;html=1;align=center;verticalAlign=middle;whiteSpace=wrap;rounded=0;" parent="1" vertex="1">
          <mxGeometry x="1359" y="210" width="60" height="30" as="geometry" />
        </mxCell>
        <mxCell id="fdpDCFg-NzPG3DscGwCP-44" value="jobname-2" style="text;html=1;align=center;verticalAlign=middle;whiteSpace=wrap;rounded=0;" parent="1" vertex="1">
          <mxGeometry x="1359" y="325" width="60" height="30" as="geometry" />
        </mxCell>
        <mxCell id="fdpDCFg-NzPG3DscGwCP-45" value="jobname-N" style="text;html=1;align=center;verticalAlign=middle;whiteSpace=wrap;rounded=0;" parent="1" vertex="1">
          <mxGeometry x="1344.5" y="470" width="89" height="30" as="geometry" />
        </mxCell>
        <mxCell id="fdpDCFg-NzPG3DscGwCP-46" value="scrapePool" style="text;html=1;align=center;verticalAlign=middle;whiteSpace=wrap;rounded=0;" parent="1" vertex="1">
          <mxGeometry x="1400" y="255" width="60" height="30" as="geometry" />
        </mxCell>
        <mxCell id="fdpDCFg-NzPG3DscGwCP-47" value="&lt;font style=&quot;font-size: 30px;&quot;&gt;...&lt;/font&gt;" style="text;html=1;align=center;verticalAlign=middle;whiteSpace=wrap;rounded=0;" parent="1" vertex="1">
          <mxGeometry x="1395.5" y="420" width="60" height="30" as="geometry" />
        </mxCell>
        <mxCell id="fdpDCFg-NzPG3DscGwCP-48" value="&lt;article data-content=&quot;[{&amp;quot;type&amp;quot;:&amp;quot;block&amp;quot;,&amp;quot;id&amp;quot;:&amp;quot;wYMw-1721447536406&amp;quot;,&amp;quot;name&amp;quot;:&amp;quot;code&amp;quot;,&amp;quot;data&amp;quot;:{&amp;quot;language&amp;quot;:&amp;quot;&amp;quot;,&amp;quot;theme&amp;quot;:&amp;quot;default&amp;quot;,&amp;quot;version&amp;quot;:1},&amp;quot;nodes&amp;quot;:[{&amp;quot;type&amp;quot;:&amp;quot;block&amp;quot;,&amp;quot;id&amp;quot;:&amp;quot;qOg6-1721447632271&amp;quot;,&amp;quot;name&amp;quot;:&amp;quot;code-line&amp;quot;,&amp;quot;data&amp;quot;:{},&amp;quot;nodes&amp;quot;:[{&amp;quot;type&amp;quot;:&amp;quot;text&amp;quot;,&amp;quot;id&amp;quot;:&amp;quot;eazO-1721447632269&amp;quot;,&amp;quot;leaves&amp;quot;:[{&amp;quot;text&amp;quot;:&amp;quot;triggerReload&amp;quot;,&amp;quot;marks&amp;quot;:[]}]}]}],&amp;quot;state&amp;quot;:{}}]&quot;&gt;&lt;div data-language=&quot;&quot; style=&quot;white-space-collapse: preserve;&quot; data-theme=&quot;default&quot;&gt;&lt;article data-content=&quot;[{&amp;quot;type&amp;quot;:&amp;quot;block&amp;quot;,&amp;quot;id&amp;quot;:&amp;quot;wYMw-1721447536406&amp;quot;,&amp;quot;name&amp;quot;:&amp;quot;code&amp;quot;,&amp;quot;data&amp;quot;:{&amp;quot;language&amp;quot;:&amp;quot;&amp;quot;,&amp;quot;theme&amp;quot;:&amp;quot;default&amp;quot;,&amp;quot;version&amp;quot;:1},&amp;quot;nodes&amp;quot;:[{&amp;quot;type&amp;quot;:&amp;quot;block&amp;quot;,&amp;quot;id&amp;quot;:&amp;quot;fw5M-1721453180857&amp;quot;,&amp;quot;name&amp;quot;:&amp;quot;code-line&amp;quot;,&amp;quot;data&amp;quot;:{},&amp;quot;nodes&amp;quot;:[{&amp;quot;type&amp;quot;:&amp;quot;text&amp;quot;,&amp;quot;id&amp;quot;:&amp;quot;NZXH-1721453180854&amp;quot;,&amp;quot;leaves&amp;quot;:[{&amp;quot;text&amp;quot;:&amp;quot;scrapePools&amp;quot;,&amp;quot;marks&amp;quot;:[]}]}]}],&amp;quot;state&amp;quot;:{}}]&quot;&gt;&lt;div data-language=&quot;&quot; data-theme=&quot;default&quot;&gt;scrapePools&lt;/div&gt;&lt;/article&gt;&lt;/div&gt;&lt;/article&gt;" style="text;strokeColor=#6c8ebf;fillColor=#dae8fc;align=left;verticalAlign=middle;spacingLeft=4;spacingRight=4;overflow=hidden;points=[[0,0.5],[1,0.5]];portConstraint=eastwest;rotatable=0;whiteSpace=wrap;html=1;perimeterSpacing=1;" parent="1" vertex="1">
          <mxGeometry x="660" y="310" width="140" height="40" as="geometry" />
        </mxCell>
        <mxCell id="fdpDCFg-NzPG3DscGwCP-56" style="edgeStyle=orthogonalEdgeStyle;rounded=0;orthogonalLoop=1;jettySize=auto;html=1;exitX=0.5;exitY=1;exitDx=0;exitDy=0;entryX=0.437;entryY=0.952;entryDx=0;entryDy=0;entryPerimeter=0;dashed=1;endArrow=none;endFill=0;fillColor=#dae8fc;strokeColor=#6c8ebf;strokeWidth=2;" parent="1" source="fdpDCFg-NzPG3DscGwCP-49" target="fdpDCFg-NzPG3DscGwCP-48" edge="1">
          <mxGeometry relative="1" as="geometry">
            <Array as="points">
              <mxPoint x="1426" y="650" />
              <mxPoint x="721" y="650" />
            </Array>
          </mxGeometry>
        </mxCell>
        <mxCell id="fdpDCFg-NzPG3DscGwCP-57" value="scrapePool会被暂存&lt;span style=&quot;background-color: initial;&quot;&gt;Scrape&amp;nbsp;&lt;/span&gt;&lt;span style=&quot;white-space-collapse: preserve;&quot;&gt;Manager的&lt;/span&gt;&lt;span style=&quot;white-space-collapse: preserve; text-align: left;&quot;&gt;scrapePools中&lt;/span&gt;" style="text;html=1;align=center;verticalAlign=middle;whiteSpace=wrap;rounded=0;" parent="1" vertex="1">
          <mxGeometry x="860" y="610" width="410" height="30" as="geometry" />
        </mxCell>
        <mxCell id="fdpDCFg-NzPG3DscGwCP-59" value="4.为每个jobname创建独立的scrapePool&lt;div&gt;将&lt;span style=&quot;background-color: initial;&quot;&gt;scrapePool存储于&lt;/span&gt;&lt;span style=&quot;background-color: initial;&quot;&gt;Scrape&amp;nbsp;&lt;/span&gt;&lt;span style=&quot;background-color: initial; white-space-collapse: preserve;&quot;&gt;Manager的&lt;/span&gt;&lt;span style=&quot;background-color: initial; white-space-collapse: preserve; text-align: left;&quot;&gt;scrapePools中&lt;/span&gt;&lt;/div&gt;" style="text;html=1;align=center;verticalAlign=middle;whiteSpace=wrap;rounded=0;" parent="1" vertex="1">
          <mxGeometry x="1020" y="405" width="320" height="30" as="geometry" />
        </mxCell>
        <mxCell id="fdpDCFg-NzPG3DscGwCP-64" value="" style="rounded=1;whiteSpace=wrap;html=1;fillColor=#d5e8d4;strokeColor=#82b366;" parent="1" vertex="1">
          <mxGeometry x="1880" y="90" width="360" height="340" as="geometry" />
        </mxCell>
        <mxCell id="fdpDCFg-NzPG3DscGwCP-101" value="" style="rounded=0;whiteSpace=wrap;html=1;fillColor=#dae8fc;strokeColor=#6c8ebf;" parent="1" vertex="1">
          <mxGeometry x="1940" y="120" width="280" height="285" as="geometry" />
        </mxCell>
        <mxCell id="fdpDCFg-NzPG3DscGwCP-65" value="&lt;article data-content=&quot;[{&amp;quot;type&amp;quot;:&amp;quot;block&amp;quot;,&amp;quot;id&amp;quot;:&amp;quot;wYMw-1721447536406&amp;quot;,&amp;quot;name&amp;quot;:&amp;quot;code&amp;quot;,&amp;quot;data&amp;quot;:{&amp;quot;language&amp;quot;:&amp;quot;&amp;quot;,&amp;quot;theme&amp;quot;:&amp;quot;default&amp;quot;,&amp;quot;version&amp;quot;:1},&amp;quot;nodes&amp;quot;:[{&amp;quot;type&amp;quot;:&amp;quot;block&amp;quot;,&amp;quot;id&amp;quot;:&amp;quot;lbsN-1721454408444&amp;quot;,&amp;quot;name&amp;quot;:&amp;quot;code-line&amp;quot;,&amp;quot;data&amp;quot;:{},&amp;quot;nodes&amp;quot;:[{&amp;quot;type&amp;quot;:&amp;quot;text&amp;quot;,&amp;quot;id&amp;quot;:&amp;quot;d9yT-1721454408442&amp;quot;,&amp;quot;leaves&amp;quot;:[{&amp;quot;text&amp;quot;:&amp;quot;scrapeLoop&amp;quot;,&amp;quot;marks&amp;quot;:[]}]}]}],&amp;quot;state&amp;quot;:{}}]&quot;&gt;&lt;div data-language=&quot;&quot; style=&quot;white-space-collapse: preserve;&quot; data-theme=&quot;default&quot;&gt;scrapeLoop&lt;/div&gt;&lt;/article&gt;" style="rounded=1;whiteSpace=wrap;html=1;fillColor=#d5e8d4;strokeColor=#82b366;" parent="1" vertex="1">
          <mxGeometry x="1890" y="490" width="120" height="60" as="geometry" />
        </mxCell>
        <mxCell id="fdpDCFg-NzPG3DscGwCP-66" value="&lt;article data-content=&quot;[{&amp;quot;type&amp;quot;:&amp;quot;block&amp;quot;,&amp;quot;id&amp;quot;:&amp;quot;wYMw-1721447536406&amp;quot;,&amp;quot;name&amp;quot;:&amp;quot;code&amp;quot;,&amp;quot;data&amp;quot;:{&amp;quot;language&amp;quot;:&amp;quot;&amp;quot;,&amp;quot;theme&amp;quot;:&amp;quot;default&amp;quot;,&amp;quot;version&amp;quot;:1},&amp;quot;nodes&amp;quot;:[{&amp;quot;type&amp;quot;:&amp;quot;block&amp;quot;,&amp;quot;id&amp;quot;:&amp;quot;lbsN-1721454408444&amp;quot;,&amp;quot;name&amp;quot;:&amp;quot;code-line&amp;quot;,&amp;quot;data&amp;quot;:{},&amp;quot;nodes&amp;quot;:[{&amp;quot;type&amp;quot;:&amp;quot;text&amp;quot;,&amp;quot;id&amp;quot;:&amp;quot;d9yT-1721454408442&amp;quot;,&amp;quot;leaves&amp;quot;:[{&amp;quot;text&amp;quot;:&amp;quot;scrapeLoop&amp;quot;,&amp;quot;marks&amp;quot;:[]}]}]}],&amp;quot;state&amp;quot;:{}}]&quot;&gt;&lt;div data-language=&quot;&quot; style=&quot;white-space-collapse: preserve;&quot; data-theme=&quot;default&quot;&gt;scrapeLoop&lt;/div&gt;&lt;/article&gt;" style="rounded=1;whiteSpace=wrap;html=1;fillColor=#d5e8d4;strokeColor=#82b366;" parent="1" vertex="1">
          <mxGeometry x="1891" y="650" width="120" height="60" as="geometry" />
        </mxCell>
        <mxCell id="fdpDCFg-NzPG3DscGwCP-69" value="&lt;font style=&quot;font-size: 30px;&quot;&gt;...&lt;/font&gt;" style="text;html=1;align=center;verticalAlign=middle;whiteSpace=wrap;rounded=0;" parent="1" vertex="1">
          <mxGeometry x="1910" y="580" width="60" height="30" as="geometry" />
        </mxCell>
        <mxCell id="fdpDCFg-NzPG3DscGwCP-70" value="target-1" style="text;html=1;align=center;verticalAlign=middle;whiteSpace=wrap;rounded=0;" parent="1" vertex="1">
          <mxGeometry x="1850" y="60" width="60" height="30" as="geometry" />
        </mxCell>
        <mxCell id="fdpDCFg-NzPG3DscGwCP-71" value="target-2" style="text;html=1;align=center;verticalAlign=middle;whiteSpace=wrap;rounded=0;" parent="1" vertex="1">
          <mxGeometry x="1860" y="460" width="60" height="30" as="geometry" />
        </mxCell>
        <mxCell id="fdpDCFg-NzPG3DscGwCP-72" value="target-N" style="text;html=1;align=center;verticalAlign=middle;whiteSpace=wrap;rounded=0;" parent="1" vertex="1">
          <mxGeometry x="1870" y="620" width="60" height="30" as="geometry" />
        </mxCell>
        <mxCell id="fdpDCFg-NzPG3DscGwCP-73" value="&lt;article data-content=&quot;[{&amp;quot;type&amp;quot;:&amp;quot;block&amp;quot;,&amp;quot;id&amp;quot;:&amp;quot;wYMw-1721447536406&amp;quot;,&amp;quot;name&amp;quot;:&amp;quot;code&amp;quot;,&amp;quot;data&amp;quot;:{&amp;quot;language&amp;quot;:&amp;quot;&amp;quot;,&amp;quot;theme&amp;quot;:&amp;quot;default&amp;quot;,&amp;quot;version&amp;quot;:1},&amp;quot;nodes&amp;quot;:[{&amp;quot;type&amp;quot;:&amp;quot;block&amp;quot;,&amp;quot;id&amp;quot;:&amp;quot;lbsN-1721454408444&amp;quot;,&amp;quot;name&amp;quot;:&amp;quot;code-line&amp;quot;,&amp;quot;data&amp;quot;:{},&amp;quot;nodes&amp;quot;:[{&amp;quot;type&amp;quot;:&amp;quot;text&amp;quot;,&amp;quot;id&amp;quot;:&amp;quot;d9yT-1721454408442&amp;quot;,&amp;quot;leaves&amp;quot;:[{&amp;quot;text&amp;quot;:&amp;quot;scrapeLoop&amp;quot;,&amp;quot;marks&amp;quot;:[]}]}]}],&amp;quot;state&amp;quot;:{}}]&quot;&gt;&lt;div data-language=&quot;&quot; style=&quot;white-space-collapse: preserve;&quot; data-theme=&quot;default&quot;&gt;scrapeLoop&lt;/div&gt;&lt;/article&gt;" style="text;html=1;align=center;verticalAlign=middle;whiteSpace=wrap;rounded=0;" parent="1" vertex="1">
          <mxGeometry x="1910" y="90" width="60" height="30" as="geometry" />
        </mxCell>
        <mxCell id="fdpDCFg-NzPG3DscGwCP-74" value="5.为每个target创建独立的&lt;span style=&quot;white-space-collapse: preserve;&quot;&gt;scrapeLoop&lt;/span&gt;" style="text;html=1;align=center;verticalAlign=middle;whiteSpace=wrap;rounded=0;" parent="1" vertex="1">
          <mxGeometry x="1545" y="235" width="226" height="30" as="geometry" />
        </mxCell>
        <mxCell id="fdpDCFg-NzPG3DscGwCP-97" style="edgeStyle=orthogonalEdgeStyle;rounded=0;orthogonalLoop=1;jettySize=auto;html=1;exitX=0.5;exitY=1;exitDx=0;exitDy=0;" parent="1" source="fdpDCFg-NzPG3DscGwCP-81" target="fdpDCFg-NzPG3DscGwCP-83" edge="1">
          <mxGeometry relative="1" as="geometry" />
        </mxCell>
        <mxCell id="fdpDCFg-NzPG3DscGwCP-81" value="" style="rounded=1;whiteSpace=wrap;html=1;" parent="1" vertex="1">
          <mxGeometry x="1960" y="190" width="140" height="60" as="geometry" />
        </mxCell>
        <mxCell id="fdpDCFg-NzPG3DscGwCP-82" value="拉取target指标" style="text;html=1;align=center;verticalAlign=middle;whiteSpace=wrap;rounded=0;" parent="1" vertex="1">
          <mxGeometry x="1985" y="208.75" width="90" height="22.5" as="geometry" />
        </mxCell>
        <mxCell id="fdpDCFg-NzPG3DscGwCP-98" style="edgeStyle=orthogonalEdgeStyle;rounded=0;orthogonalLoop=1;jettySize=auto;html=1;exitX=0.5;exitY=1;exitDx=0;exitDy=0;entryX=0.5;entryY=0;entryDx=0;entryDy=0;dashed=1;dashPattern=8 8;" parent="1" source="fdpDCFg-NzPG3DscGwCP-83" target="fdpDCFg-NzPG3DscGwCP-81" edge="1">
          <mxGeometry relative="1" as="geometry">
            <Array as="points">
              <mxPoint x="2030" y="380" />
              <mxPoint x="2160" y="380" />
              <mxPoint x="2160" y="170" />
              <mxPoint x="2030" y="170" />
            </Array>
          </mxGeometry>
        </mxCell>
        <mxCell id="fdpDCFg-NzPG3DscGwCP-83" value="&lt;div&gt;&lt;br&gt;&lt;/div&gt;&lt;div&gt;存储指标&lt;/div&gt;" style="rounded=1;whiteSpace=wrap;html=1;fillColor=#f8cecc;strokeColor=#b85450;" parent="1" vertex="1">
          <mxGeometry x="1950" y="280" width="160" height="80" as="geometry" />
        </mxCell>
        <mxCell id="fdpDCFg-NzPG3DscGwCP-99" value="&lt;article data-content=&quot;[{&amp;quot;type&amp;quot;:&amp;quot;block&amp;quot;,&amp;quot;id&amp;quot;:&amp;quot;wYMw-1721447536406&amp;quot;,&amp;quot;name&amp;quot;:&amp;quot;code&amp;quot;,&amp;quot;data&amp;quot;:{&amp;quot;language&amp;quot;:&amp;quot;&amp;quot;,&amp;quot;theme&amp;quot;:&amp;quot;default&amp;quot;,&amp;quot;version&amp;quot;:1},&amp;quot;nodes&amp;quot;:[{&amp;quot;type&amp;quot;:&amp;quot;block&amp;quot;,&amp;quot;id&amp;quot;:&amp;quot;lbsN-1721454408444&amp;quot;,&amp;quot;name&amp;quot;:&amp;quot;code-line&amp;quot;,&amp;quot;data&amp;quot;:{},&amp;quot;nodes&amp;quot;:[{&amp;quot;type&amp;quot;:&amp;quot;text&amp;quot;,&amp;quot;id&amp;quot;:&amp;quot;d9yT-1721454408442&amp;quot;,&amp;quot;leaves&amp;quot;:[{&amp;quot;text&amp;quot;:&amp;quot;scrapeLoop&amp;quot;,&amp;quot;marks&amp;quot;:[]}]}]}],&amp;quot;state&amp;quot;:{}}]&quot;&gt;&lt;div data-language=&quot;&quot; style=&quot;white-space-collapse: preserve;&quot; data-theme=&quot;default&quot;&gt;storage模块&lt;/div&gt;&lt;/article&gt;" style="text;html=1;align=center;verticalAlign=middle;whiteSpace=wrap;rounded=0;" parent="1" vertex="1">
          <mxGeometry x="1950" y="280" width="90" height="30" as="geometry" />
        </mxCell>
        <mxCell id="fdpDCFg-NzPG3DscGwCP-103" value="&lt;span style=&quot;white-space-collapse: preserve;&quot;&gt;6. 协程启动scrapeLoop.run&lt;/span&gt;" style="text;html=1;align=center;verticalAlign=middle;whiteSpace=wrap;rounded=0;" parent="1" vertex="1">
          <mxGeometry x="1940" y="130" width="170" height="30" as="geometry" />
        </mxCell>
        <mxCell id="XsaYZCnVBgNQdDiTwEfk-1" value="&lt;font color=&quot;#e6e6e6&quot;&gt;tyltr&lt;/font&gt;" style="text;html=1;align=center;verticalAlign=middle;whiteSpace=wrap;rounded=0;shadow=1;" vertex="1" parent="1">
          <mxGeometry x="30" y="860" width="60" height="30" as="geometry" />
        </mxCell>
        <mxCell id="XsaYZCnVBgNQdDiTwEfk-2" value="&lt;font color=&quot;#e6e6e6&quot;&gt;tyltr&lt;/font&gt;" style="text;html=1;align=center;verticalAlign=middle;whiteSpace=wrap;rounded=0;shadow=1;" vertex="1" parent="1">
          <mxGeometry x="384" y="120" width="60" height="30" as="geometry" />
        </mxCell>
        <mxCell id="XsaYZCnVBgNQdDiTwEfk-3" value="&lt;font color=&quot;#f5f5f5&quot;&gt;tyltr&lt;/font&gt;" style="text;html=1;align=center;verticalAlign=middle;whiteSpace=wrap;rounded=0;shadow=1;" vertex="1" parent="1">
          <mxGeometry x="354" y="520" width="60" height="30" as="geometry" />
        </mxCell>
        <mxCell id="XsaYZCnVBgNQdDiTwEfk-4" value="&lt;font color=&quot;#f7f7f7&quot;&gt;tyltr&lt;/font&gt;" style="text;html=1;align=center;verticalAlign=middle;whiteSpace=wrap;rounded=0;shadow=1;" vertex="1" parent="1">
          <mxGeometry x="510" y="700" width="60" height="30" as="geometry" />
        </mxCell>
        <mxCell id="XsaYZCnVBgNQdDiTwEfk-5" value="&lt;font color=&quot;#f7f7f7&quot;&gt;tyltr&lt;/font&gt;" style="text;html=1;align=center;verticalAlign=middle;whiteSpace=wrap;rounded=0;shadow=1;" vertex="1" parent="1">
          <mxGeometry x="110" y="620" width="60" height="30" as="geometry" />
        </mxCell>
        <mxCell id="XsaYZCnVBgNQdDiTwEfk-6" value="&lt;font color=&quot;#f5f5f5&quot;&gt;tyltr&lt;/font&gt;" style="text;html=1;align=center;verticalAlign=middle;whiteSpace=wrap;rounded=0;shadow=1;" vertex="1" parent="1">
          <mxGeometry x="600" y="670" width="60" height="30" as="geometry" />
        </mxCell>
        <mxCell id="XsaYZCnVBgNQdDiTwEfk-7" value="&lt;font color=&quot;#e6e6e6&quot;&gt;tyltr&lt;/font&gt;" style="text;html=1;align=center;verticalAlign=middle;whiteSpace=wrap;rounded=0;shadow=1;" vertex="1" parent="1">
          <mxGeometry x="620" y="520" width="60" height="30" as="geometry" />
        </mxCell>
        <mxCell id="XsaYZCnVBgNQdDiTwEfk-8" value="&lt;font color=&quot;#e6e6e6&quot;&gt;tyltr&lt;/font&gt;" style="text;html=1;align=center;verticalAlign=middle;whiteSpace=wrap;rounded=0;shadow=1;" vertex="1" parent="1">
          <mxGeometry x="960" y="510" width="60" height="30" as="geometry" />
        </mxCell>
        <mxCell id="XsaYZCnVBgNQdDiTwEfk-9" value="&lt;font color=&quot;#e6e6e6&quot;&gt;tyltr&lt;/font&gt;" style="text;html=1;align=center;verticalAlign=middle;whiteSpace=wrap;rounded=0;shadow=1;" vertex="1" parent="1">
          <mxGeometry x="820" y="750" width="60" height="30" as="geometry" />
        </mxCell>
        <mxCell id="XsaYZCnVBgNQdDiTwEfk-10" value="&lt;font color=&quot;#e6e6e6&quot;&gt;tyltr&lt;/font&gt;" style="text;html=1;align=center;verticalAlign=middle;whiteSpace=wrap;rounded=0;shadow=1;" vertex="1" parent="1">
          <mxGeometry x="1110" y="260" width="60" height="30" as="geometry" />
        </mxCell>
        <mxCell id="XsaYZCnVBgNQdDiTwEfk-11" value="&lt;font color=&quot;#e6e6e6&quot;&gt;tyltr&lt;/font&gt;" style="text;html=1;align=center;verticalAlign=middle;whiteSpace=wrap;rounded=0;shadow=1;" vertex="1" parent="1">
          <mxGeometry x="1344.5" y="80" width="60" height="30" as="geometry" />
        </mxCell>
        <mxCell id="XsaYZCnVBgNQdDiTwEfk-12" value="&lt;font color=&quot;#e6e6e6&quot;&gt;tyltr&lt;/font&gt;" style="text;html=1;align=center;verticalAlign=middle;whiteSpace=wrap;rounded=0;shadow=1;" vertex="1" parent="1">
          <mxGeometry x="1284.5" y="580" width="60" height="30" as="geometry" />
        </mxCell>
        <mxCell id="XsaYZCnVBgNQdDiTwEfk-13" value="&lt;font color=&quot;#e6e6e6&quot;&gt;tyltr&lt;/font&gt;" style="text;html=1;align=center;verticalAlign=middle;whiteSpace=wrap;rounded=0;shadow=1;" vertex="1" parent="1">
          <mxGeometry x="1520" y="770" width="60" height="40" as="geometry" />
        </mxCell>
        <mxCell id="XsaYZCnVBgNQdDiTwEfk-14" value="&lt;font color=&quot;#e6e6e6&quot;&gt;tyltr&lt;/font&gt;" style="text;html=1;align=center;verticalAlign=middle;whiteSpace=wrap;rounded=0;shadow=1;" vertex="1" parent="1">
          <mxGeometry x="1800" y="520" width="60" height="40" as="geometry" />
        </mxCell>
        <mxCell id="XsaYZCnVBgNQdDiTwEfk-15" value="&lt;font color=&quot;#e6e6e6&quot;&gt;tyltr&lt;/font&gt;" style="text;html=1;align=center;verticalAlign=middle;whiteSpace=wrap;rounded=0;shadow=1;" vertex="1" parent="1">
          <mxGeometry x="1940" y="360" width="60" height="40" as="geometry" />
        </mxCell>
      </root>
    </mxGraphModel>
  </diagram>
</mxfile>
